<svg width="420" height="185" viewBox="0 0 458 186" fill="none" xmlns="http://www.w3.org/2000/svg">
<path fill-rule="evenodd" clip-rule="evenodd" d="M63.8543 37.4704C63.2292 27.3986 55.7685 21.3097 44.0797 21.3097C33.6253 21.3097 27.5332 26.9056 27.5332 33.1173C27.5332 42.3166 36.9897 45.0544 48.6807 48.042C68.2188 53.0109 80.5282 57.3618 80.5282 75.1447C80.5282 91.4304 67.5914 103.12 45.8187 103.12C23.4323 103.12 10.8684 91.9257 10 72.0298H24.4189C25.2918 83.7192 33.6253 90.3126 47.0645 90.3126C58.0076 90.3126 64.4794 84.0964 64.4794 77.5076C64.4794 74.7698 62.4904 70.6689 59.6284 68.0561C55.3957 64.205 48.6807 63.0804 39.9721 60.847C21.4433 55.9986 12.6051 49.1553 12.6051 34.2396C12.6051 20.1873 24.6712 9 45.8187 9C65.35 9 77.9117 20.0646 78.0436 37.4704H63.8543Z" fill="white"/>
<path fill-rule="evenodd" clip-rule="evenodd" d="M117.473 44.931C108.016 44.931 102.54 50.8995 101.676 61.7188H133.144C133.019 50.8995 127.297 44.931 117.473 44.931ZM101.676 71.786C101.924 84.098 108.016 90.8095 118.348 90.8095C125.808 90.8095 131.153 86.8312 132.896 80.1197H146.708C144.219 93.6654 132.644 102.869 117.473 102.869C98.9369 102.869 87.2436 89.9393 87.2436 67.8078C87.2436 46.0488 98.8119 33.1189 117.848 33.1189C136.004 33.1189 147.695 45.4309 147.695 66.9376C147.695 68.428 147.583 70.0434 147.451 71.786H101.676Z" fill="white"/>
<path fill-rule="evenodd" clip-rule="evenodd" d="M212.509 100.757H198.584V60.7173V57.7387C198.584 49.7754 194.349 45.429 186.643 45.429C176.311 45.429 169.964 51.6429 169.964 62.7076V100.757H156.032V35.2323H169.464V44.0613C174.072 37.3475 181.28 33.6169 189.493 33.6169C207.911 33.6169 212.509 42.4413 212.509 59.1042V100.757Z" fill="white"/>
<path fill-rule="evenodd" clip-rule="evenodd" d="M260.532 54.2553C260.152 47.7869 255.303 44.3107 246.722 44.3107C239.377 44.3107 235.654 47.4143 235.654 51.3926C235.654 56.1252 239.509 58.1109 246.595 59.7308L254.933 61.5939C268.868 64.8246 275.949 68.9256 275.949 80.9854C275.949 94.5379 265.753 102.869 247.588 102.869C229.669 102.869 219.73 94.2947 219.73 79.4927H233.406C234.031 87.5764 239.123 91.432 248.834 91.432C257.288 91.432 262.018 87.8264 262.018 82.7325C262.018 78.0068 258.29 76.3869 251.821 74.7692L241.996 72.2859C228.309 68.9256 221.594 64.2044 221.594 53.5078C221.594 41.3299 231.046 33.1189 247.22 33.1189C263.894 33.1189 274.091 41.573 274.091 54.2553H260.532Z" fill="white"/>
<path fill-rule="evenodd" clip-rule="evenodd" d="M306.677 72.409C300.212 73.6518 297.1 76.8803 297.1 82.2309C297.1 88.1994 300.956 91.6824 307.8 91.6824C317.748 91.6824 325.711 85.4639 325.711 76.1374V67.9309C319.741 70.9118 313.149 71.1617 306.677 72.409ZM304.565 102.87C291.133 102.87 283.425 95.4107 283.425 83.4759C283.425 67.9309 293.74 63.7027 311.283 61.4625C322.853 59.9675 325.831 59.8494 325.831 53.7582C325.831 47.4147 321.48 44.5543 312.399 44.5543C303.824 44.5543 299.212 48.2872 299.212 54.8805V55.3735H286.03V54.2557C286.03 41.4485 295.98 33.1193 312.899 33.1193C330.309 33.1193 339.273 39.7081 339.273 52.5154V84.9618C339.273 88.9401 339.648 91.0576 343.251 91.0576C343.996 91.0576 344.994 90.9349 345.988 90.8099V101.004C343.619 101.625 341.266 102 338.898 102C330.441 102 326.454 98.7688 326.329 92.0505C320.987 99.0119 313.149 102.87 304.565 102.87Z" fill="white"/>
<path fill-rule="evenodd" clip-rule="evenodd" d="M369.996 17.2033V35.2339H380.946V45.5556H369.996V84.0978C369.996 88.4509 370.867 90.064 375.467 90.064C376.468 90.064 377.336 89.9391 378.204 89.9391L380.946 89.8187V100.876C377.211 101.251 373.976 101.626 371.121 101.626C359.548 101.626 356.186 96.9005 356.186 85.8381V45.5556H346.857V35.2339H356.186V17.2033H369.996Z" fill="white"/>
<path fill-rule="evenodd" clip-rule="evenodd" d="M409.678 72.409C403.213 73.6518 400.101 76.8803 400.101 82.2309C400.101 88.1994 403.957 91.6824 410.803 91.6824C420.749 91.6824 428.714 85.4639 428.714 76.1374V67.9309C422.738 70.9118 416.141 71.1617 409.678 72.409ZM407.566 102.87C394.127 102.87 386.417 95.4107 386.417 83.4759C386.417 67.9309 396.741 63.7027 414.275 61.4625C425.847 59.9675 428.839 59.8494 428.839 53.7582C428.839 47.4147 424.484 44.5543 415.402 44.5543C406.816 44.5543 402.215 48.2872 402.215 54.8805V55.3735H389.029V54.2557C389.029 41.4485 398.985 33.1193 415.893 33.1193C433.317 33.1193 442.274 39.7081 442.274 52.5154V84.9618C442.274 88.9401 442.649 91.0576 446.245 91.0576C446.997 91.0576 447.995 90.9349 448.989 90.8099V101.004C446.622 101.625 444.258 102 441.892 102C433.433 102 429.462 98.7688 429.332 92.0505C423.986 99.0119 416.141 102.87 407.566 102.87Z" fill="white"/>
<path fill-rule="evenodd" clip-rule="evenodd" d="M45.4718 121.442V127.977H31.7326V166.142H24.3379V127.977H10.5259V121.442H45.4718Z" fill="white"/>
<path fill-rule="evenodd" clip-rule="evenodd" d="M55.8644 138.23C51.1429 138.23 48.4015 141.211 47.9627 146.623H63.6933C63.6342 141.211 60.7836 138.23 55.8644 138.23ZM47.9627 151.66C48.0878 157.811 51.1429 161.171 56.3054 161.171C60.0311 161.171 62.7112 159.178 63.5819 155.818H70.4833C69.2353 162.6 63.4569 167.196 55.8644 167.196C46.5988 167.196 40.7544 160.732 40.7544 149.663C40.7544 138.787 46.5375 132.321 56.0485 132.321C65.1299 132.321 70.9766 138.478 70.9766 149.227C70.9766 149.974 70.9175 150.788 70.8606 151.66H47.9627Z" fill="white"/>
<path fill-rule="evenodd" clip-rule="evenodd" d="M97.5321 144.568C97.1615 140.654 94.4837 138.291 90.4465 138.291C85.0295 138.291 82.2403 142.146 82.2403 149.728C82.2403 157.128 85.0909 161.047 90.2578 161.047C94.4201 161.047 97.1024 158.618 97.7162 154.145H104.372C103.813 162.224 98.3436 167.195 89.5827 167.195C80.6831 167.195 75.0183 160.609 75.0183 149.853C75.0183 138.85 80.8059 132.32 90.2578 132.32C98.5323 132.32 103.936 136.925 104.372 144.568H97.5321Z" fill="white"/>
<path fill-rule="evenodd" clip-rule="evenodd" d="M115.264 121.442V137.605C117.378 134.374 120.86 132.57 125.277 132.57C132.492 132.57 136.473 136.176 136.473 142.89C136.473 143.39 136.532 144.383 136.532 145.812V166.142H129.567V147.298V145.937C129.567 140.897 127.821 138.534 123.277 138.534C118.621 138.534 115.264 141.647 115.264 146.748V166.142H108.296V121.442H115.264Z" fill="white"/>
<path fill-rule="evenodd" clip-rule="evenodd" d="M171.232 166.141H164.272V146.123V144.625C164.272 140.654 162.153 138.477 158.305 138.477C153.138 138.477 149.969 141.586 149.969 147.118V166.141H142.999V133.379H149.721V137.789C152.021 134.436 155.627 132.572 159.728 132.572C168.945 132.572 171.232 136.987 171.232 145.314V166.141Z" fill="white"/>
<path fill-rule="evenodd" clip-rule="evenodd" d="M182.992 149.791C182.992 157.257 186.232 161.226 192.012 161.226C197.734 161.226 200.967 157.257 200.967 149.791C200.967 142.264 197.734 138.29 192.012 138.29C186.232 138.29 182.992 142.332 182.992 149.791ZM208.059 149.791C208.059 160.733 201.955 167.195 192.012 167.195C181.999 167.195 175.9 160.79 175.9 149.791C175.9 138.786 181.933 132.322 191.947 132.322C201.955 132.322 208.059 138.849 208.059 149.791Z" fill="white"/>
<path fill-rule="evenodd" clip-rule="evenodd" d="M214.034 166.141H220.997V121.442H214.034V166.141Z" fill="white"/>
<path fill-rule="evenodd" clip-rule="evenodd" d="M233.995 149.791C233.995 157.257 237.234 161.226 243.01 161.226C248.732 161.226 251.971 157.257 251.971 149.791C251.971 142.264 248.732 138.29 243.01 138.29C237.234 138.29 233.995 142.332 233.995 149.791ZM259.061 149.791C259.061 160.733 252.965 167.195 243.01 167.195C232.995 167.195 226.905 160.79 226.905 149.791C226.905 138.786 232.936 132.322 242.956 132.322C252.965 132.322 259.061 138.849 259.061 149.791Z" fill="white"/>
<path fill-rule="evenodd" clip-rule="evenodd" d="M278.954 160.733C284.685 160.733 287.544 157.064 287.544 149.602C287.544 142.207 284.498 138.349 278.711 138.349C273.55 138.349 270.32 142.393 270.32 149.294C270.32 156.814 273.491 160.733 278.954 160.733ZM277.59 166.697C268.818 166.697 263.228 159.858 263.228 149.662C263.228 139.099 268.888 132.322 277.654 132.322C281.95 132.322 285.062 133.935 287.481 137.481V133.378H294.139V164.77C294.139 174.903 290.149 179.691 278.586 179.691C269.506 179.691 264.471 175.776 264.41 169.68H271.561C271.741 172.479 274.173 173.972 278.586 173.972C285.182 173.972 287.419 171.3 287.419 165.647V161.851C285.307 165.023 281.95 166.697 277.59 166.697Z" fill="white"/>
<path fill-rule="evenodd" clip-rule="evenodd" d="M300.73 166.141H307.695V133.379H300.73V166.141Z" fill="white"/>
<path fill-rule="evenodd" clip-rule="evenodd" d="M300.132 125.086C300.132 122.943 301.959 121.205 304.208 121.205C306.456 121.205 308.281 122.943 308.281 125.086C308.281 127.214 306.456 128.952 304.208 128.952C301.959 128.952 300.132 127.214 300.132 125.086Z" fill="white"/>
<path fill-rule="evenodd" clip-rule="evenodd" d="M328.721 138.23C323.993 138.23 321.258 141.211 320.822 146.623H336.557C336.491 141.211 333.627 138.23 328.721 138.23ZM320.822 151.66C320.942 157.811 323.993 161.171 329.148 161.171C332.888 161.171 335.557 159.178 336.432 155.818H343.34C342.09 162.6 336.307 167.196 328.721 167.196C319.446 167.196 313.611 160.732 313.611 149.663C313.611 138.787 319.39 132.321 328.905 132.321C337.987 132.321 343.833 138.478 343.833 149.227C343.833 149.974 343.77 150.788 343.711 151.66H320.822Z" fill="white"/>
<path fill-rule="evenodd" clip-rule="evenodd" d="M367.523 142.89C367.339 139.655 364.92 137.919 360.628 137.919C356.955 137.919 355.091 139.471 355.091 141.461C355.091 143.826 357.014 144.817 360.569 145.628L364.729 146.559C371.697 148.175 375.245 150.226 375.245 156.256C375.245 163.033 370.144 167.196 361.058 167.196C352.106 167.196 347.121 162.906 347.121 155.511H353.97C354.284 159.548 356.828 161.479 361.676 161.479C365.904 161.479 368.273 159.675 368.273 157.128C368.273 154.763 366.405 153.955 363.177 153.146L358.264 151.903C351.422 150.226 348.058 147.866 348.058 142.522C348.058 136.428 352.788 132.321 360.874 132.321C369.205 132.321 374.306 136.549 374.306 142.89H367.523Z" fill="white"/>
</svg>
