<svg width="200" height="30" viewBox="0 0 194 32" fill="none" xmlns="http://www.w3.org/2000/svg">
<path fill-rule="evenodd" clip-rule="evenodd" d="M0.355499 27.6851C0.355499 25.3021 2.2805 23.3761 4.6615 23.3761C7.0405 23.3761 8.9675 25.3021 8.9675 27.6851C8.9675 30.0591 7.0405 31.9911 4.6615 31.9911C2.2805 31.9911 0.355499 30.0591 0.355499 27.6851Z" fill="#818386"/>
<path fill-rule="evenodd" clip-rule="evenodd" d="M29.8906 5.0723C29.8906 2.6903 31.8266 0.762299 34.2026 0.762299C36.5776 0.762299 38.5056 2.6903 38.5056 5.0723C38.5056 7.4513 36.5776 9.3803 34.2026 9.3803C31.8266 9.3803 29.8906 7.4513 29.8906 5.0723Z" fill="#009FEE"/>
<path fill-rule="evenodd" clip-rule="evenodd" d="M41.5703 16.3789C41.5703 13.9989 43.5003 12.0679 45.8793 12.0679C48.2563 12.0679 50.1873 13.9989 50.1873 16.3789C50.1873 18.7549 48.2563 20.6839 45.8793 20.6839C43.5003 20.6839 41.5703 18.7549 41.5703 16.3789Z" fill="#5983B1"/>
<path fill-rule="evenodd" clip-rule="evenodd" d="M60.4473 5.0723C60.4473 2.6903 62.3673 0.762299 64.7533 0.762299C67.1263 0.762299 69.0583 2.6903 69.0583 5.0723C69.0583 7.4513 67.1263 9.3803 64.7533 9.3803C62.3673 9.3803 60.4473 7.4513 60.4473 5.0723Z" fill="#4E7949"/>
<path fill-rule="evenodd" clip-rule="evenodd" d="M72.123 5.0723C72.123 2.6903 74.055 0.762299 76.428 0.762299C78.803 0.762299 80.735 2.6903 80.735 5.0723C80.735 7.4513 78.803 9.3803 76.428 9.3803C74.055 9.3803 72.123 7.4513 72.123 5.0723Z" fill="#006A86"/>
<path fill-rule="evenodd" clip-rule="evenodd" d="M72.123 16.3789C72.123 13.9989 74.055 12.0679 76.428 12.0679C78.803 12.0679 80.735 13.9989 80.735 16.3789C80.735 18.7549 78.803 20.6839 76.428 20.6839C74.055 20.6839 72.123 18.7549 72.123 16.3789Z" fill="#146C5C"/>
<path fill-rule="evenodd" clip-rule="evenodd" d="M60.4473 27.6851C60.4473 25.3021 62.3673 23.3761 64.7533 23.3761C67.1263 23.3761 69.0583 25.3021 69.0583 27.6851C69.0583 30.0591 67.1263 31.9911 64.7533 31.9911C62.3673 31.9911 60.4473 30.0591 60.4473 27.6851Z" fill="#4F61AE"/>
<path fill-rule="evenodd" clip-rule="evenodd" d="M105.08 5.0723C105.08 2.6903 107.011 0.762299 109.387 0.762299C111.773 0.762299 113.695 2.6903 113.695 5.0723C113.695 7.4513 111.773 9.3803 109.387 9.3803C107.011 9.3803 105.08 7.4513 105.08 5.0723Z" fill="#A0CC51"/>
<path fill-rule="evenodd" clip-rule="evenodd" d="M93.3979 16.3789C93.3979 13.9989 95.3349 12.0679 97.7119 12.0679C100.092 12.0679 102.018 13.9989 102.018 16.3789C102.018 18.7549 100.092 20.6839 97.7119 20.6839C95.3349 20.6839 93.3979 18.7549 93.3979 16.3789Z" fill="#00A046"/>
<path fill-rule="evenodd" clip-rule="evenodd" d="M93.3979 27.6851C93.3979 25.3021 95.3349 23.3761 97.7119 23.3761C100.092 23.3761 102.018 25.3021 102.018 27.6851C102.018 30.0591 100.092 31.9911 97.7119 31.9911C95.3349 31.9911 93.3979 30.0591 93.3979 27.6851Z" fill="#5AB130"/>
<path fill-rule="evenodd" clip-rule="evenodd" d="M163.394 5.0723C163.394 2.6903 165.321 0.762299 167.701 0.762299C170.078 0.762299 172.007 2.6903 172.007 5.0723C172.007 7.4513 170.078 9.3803 167.701 9.3803C165.321 9.3803 163.394 7.4513 163.394 5.0723Z" fill="#D8007A"/>
<path fill-rule="evenodd" clip-rule="evenodd" d="M151.72 16.3789C151.72 13.9989 153.644 12.0679 156.019 12.0679C158.404 12.0679 160.33 13.9989 160.33 16.3789C160.33 18.7549 158.404 20.6839 156.019 20.6839C153.644 20.6839 151.72 18.7549 151.72 16.3789Z" fill="#9C3D91"/>
<path fill-rule="evenodd" clip-rule="evenodd" d="M163.394 16.3789C163.394 13.9989 165.321 12.0679 167.701 12.0679C170.078 12.0679 172.007 13.9989 172.007 16.3789C172.007 18.7549 170.078 20.6839 167.701 20.6839C165.321 20.6839 163.394 18.7549 163.394 16.3789Z" fill="#E87A2B"/>
<path fill-rule="evenodd" clip-rule="evenodd" d="M151.72 27.6836C151.72 25.3016 153.644 23.3756 156.019 23.3756C158.404 23.3756 160.33 25.3016 160.33 27.6836C160.33 30.0586 158.404 31.9886 156.019 31.9886C153.644 31.9886 151.72 30.0586 151.72 27.6836Z" fill="#8B6F28"/>
<path fill-rule="evenodd" clip-rule="evenodd" d="M184.539 5.0723C184.539 2.6903 186.473 0.762299 188.849 0.762299C191.229 0.762299 193.154 2.6903 193.154 5.0723C193.154 7.4473 191.229 9.3803 188.849 9.3803C186.473 9.3803 184.539 7.4473 184.539 5.0723Z" fill="#D80017"/>
<path fill-rule="evenodd" clip-rule="evenodd" d="M12.0322 5.0723C12.0322 2.6903 13.9652 0.762299 16.3412 0.762299C18.7192 0.762299 20.6472 2.6903 20.6472 5.0723C20.6472 7.4513 18.7192 9.3803 16.3412 9.3803C13.9652 9.3803 12.0322 7.4513 12.0322 5.0723Z" fill="#C7C9CB"/>
<path fill-rule="evenodd" clip-rule="evenodd" d="M0.355499 16.3789C0.355499 13.9989 2.2805 12.0679 4.6615 12.0679C7.0405 12.0679 8.9675 13.9989 8.9675 16.3789C8.9675 18.7549 7.0405 20.6839 4.6615 20.6839C2.2805 20.6839 0.355499 18.7549 0.355499 16.3789Z" fill="#515154"/>
<path fill-rule="evenodd" clip-rule="evenodd" d="M131.078 5.0723C131.078 2.6903 133.014 0.762299 135.389 0.762299C137.77 0.762299 139.697 2.6903 139.697 5.0723C139.697 7.4473 137.77 9.3803 135.389 9.3803C133.014 9.3803 131.078 7.4473 131.078 5.0723Z" fill="#995C19"/>
</svg>
